<?xml version="1.0" standalone="no"?>
<!DOCTYPE svg PUBLIC "-//W3C//DTD SVG 20010904//EN"
 "http://www.w3.org/TR/2001/REC-SVG-20010904/DTD/svg10.dtd">
<svg version="1.0" xmlns="http://www.w3.org/2000/svg"
 width="600.000000pt" height="600.000000pt" viewBox="0 0 600.000000 600.000000"
 preserveAspectRatio="xMidYMid meet">
<metadata>
Created by potrace 1.14, written by Peter Selinger 2001-2017
</metadata>
<g transform="translate(0.000000,600.000000) scale(0.100000,-0.100000)"
fill="#000000" stroke="none">
<path d="M1049 5993 c-22 -3 -27 -11 -35 -51 -8 -39 -16 -51 -50 -74 -23 -15
-47 -41 -54 -57 -7 -17 -20 -33 -30 -36 -20 -6 -100 -98 -100 -115 0 -26 -31
-67 -70 -90 -25 -15 -43 -35 -46 -50 -3 -14 -10 -35 -15 -48 -5 -13 -9 -40 -9
-61 0 -30 -4 -40 -19 -44 -12 -3 -21 -15 -23 -33 -2 -22 -10 -30 -36 -38 -44
-12 -76 -73 -69 -127 7 -54 -13 -103 -63 -154 l-43 -44 5 -70 5 -71 -28 0
c-57 0 -66 -29 -44 -136 5 -21 2 -35 -8 -45 -8 -8 -22 -30 -31 -48 -16 -30
-16 -36 0 -101 14 -59 15 -72 3 -86 -9 -11 -15 -53 -17 -123 -3 -77 -8 -111
-19 -123 -12 -14 -14 -28 -8 -65 4 -27 9 -90 10 -141 2 -62 8 -99 17 -110 8
-9 24 -42 37 -74 l22 -56 -20 -38 c-12 -21 -21 -48 -21 -59 0 -26 34 -81 57
-94 10 -5 27 -27 38 -48 11 -21 25 -44 32 -51 9 -10 8 -22 -7 -55 -30 -66 -25
-127 11 -127 12 0 26 -13 36 -35 15 -30 15 -42 4 -84 -8 -33 -9 -60 -3 -83 5
-18 7 -39 4 -46 -9 -27 9 -61 43 -81 34 -20 35 -21 35 -87 0 -66 0 -67 48
-114 26 -26 52 -49 57 -51 23 -9 72 -87 79 -124 4 -22 19 -50 32 -64 13 -13
24 -29 24 -35 0 -19 50 -61 115 -95 41 -22 65 -41 75 -64 10 -20 32 -40 64
-56 34 -18 53 -35 63 -58 11 -27 19 -33 43 -33 26 0 33 -6 53 -47 23 -47 28
-52 85 -72 147 -51 217 -71 249 -71 27 0 37 -7 58 -40 28 -45 55 -55 120 -46
41 7 84 -8 105 -35 3 -3 16 -10 30 -14 14 -4 32 -14 41 -21 11 -10 41 -13 107
-12 l92 2 0 28 c0 15 5 28 10 28 20 0 9 15 -23 34 -17 10 -61 35 -97 54 -100
54 -212 165 -295 290 -26 40 -31 43 -59 37 -78 -18 -124 1 -203 83 -75 78
-115 160 -142 290 -24 115 -2 203 66 271 39 40 45 43 59 29 8 -8 23 -48 34
-89 10 -41 32 -119 48 -173 28 -92 29 -101 14 -113 -16 -11 -16 -12 0 -13 10
0 29 -20 44 -45 24 -42 29 -45 68 -45 29 0 48 6 60 18 15 17 15 28 0 153 -27
233 -33 290 -45 457 -11 154 -11 163 7 183 15 16 19 37 20 93 1 39 7 91 14
116 7 25 13 61 14 81 2 19 6 41 10 47 15 25 24 119 15 166 -8 43 -6 53 24 109
18 34 37 75 42 91 7 19 24 37 50 50 40 21 40 21 46 92 3 48 12 81 27 105 12
19 30 53 41 76 24 50 45 63 107 63 36 0 58 -7 86 -27 46 -31 113 -34 162 -8
31 17 34 17 103 -14 87 -38 104 -38 162 -4 38 22 56 26 121 26 78 -1 102 6
134 39 22 23 75 18 116 -11 47 -33 67 -34 125 -5 53 27 56 27 89 12 66 -32
101 -33 161 -4 46 23 60 26 90 17 19 -5 49 -21 66 -35 47 -40 72 -42 147 -13
102 39 127 41 146 12 16 -24 20 -25 129 -24 102 1 114 3 137 24 20 19 38 24
89 26 60 2 65 1 74 -22 44 -110 57 -128 110 -138 24 -5 33 -13 35 -31 7 -50
54 -140 73 -140 11 0 19 -3 20 -7 0 -5 1 -36 2 -69 1 -43 7 -68 19 -81 30 -33
58 -137 51 -191 -4 -37 -1 -56 15 -86 19 -35 21 -57 22 -245 0 -113 5 -237 9
-276 5 -38 4 -152 -1 -253 l-9 -183 26 -25 c62 -57 103 -53 142 15 15 25 30
48 33 51 3 3 5 21 6 40 0 19 6 69 13 110 6 41 18 131 26 199 8 68 18 128 24
134 6 6 20 6 38 0 21 -7 36 -26 61 -74 28 -56 33 -77 38 -169 7 -126 -14 -228
-70 -337 -45 -87 -48 -90 -126 -142 -48 -32 -76 -44 -107 -45 -35 -1 -50 -9
-84 -41 -22 -22 -51 -60 -64 -85 -56 -110 -257 -258 -399 -294 -32 -9 -74 -25
-93 -36 -19 -11 -41 -20 -49 -20 -8 0 -14 -4 -14 -10 0 -5 -13 -10 -29 -10
-34 0 -54 -20 -49 -52 3 -21 9 -23 70 -26 37 -2 77 2 88 8 14 8 26 8 40 0 16
-9 24 -6 42 15 25 29 51 31 100 11 44 -19 70 -12 91 23 19 33 57 43 123 34 36
-5 49 -2 67 14 22 20 45 29 124 53 31 10 49 24 68 52 25 37 29 39 61 33 30 -5
40 -1 74 28 22 19 58 39 79 46 30 9 44 20 58 49 14 29 27 39 58 47 33 9 44 19
60 53 19 40 22 42 57 36 58 -9 138 47 138 96 0 9 12 30 26 46 14 16 37 43 51
61 13 18 33 35 42 38 18 5 61 89 61 118 0 9 17 25 38 36 46 23 65 78 68 196 1
44 2 83 3 87 1 3 16 15 34 25 26 16 36 31 50 79 9 32 16 77 14 98 -2 35 2 42
33 63 44 30 48 42 49 124 1 37 8 83 16 103 18 42 10 108 -20 184 -19 48 -15
72 14 72 23 0 38 49 23 76 -6 10 -6 29 1 49 8 28 6 39 -12 68 -26 43 -26 50 2
62 39 18 35 82 -8 133 -25 30 -25 31 -9 71 18 44 14 86 -11 135 -8 15 -17 40
-20 55 -2 14 -10 38 -16 53 -9 22 -8 36 5 70 19 45 15 103 -9 135 -9 11 -14
43 -15 80 0 55 -4 66 -30 96 -27 31 -30 42 -30 101 0 47 -6 77 -20 103 -11 21
-20 51 -20 66 0 16 -6 41 -14 55 -8 15 -18 48 -21 75 -3 26 -10 47 -15 47 -16
0 -40 57 -40 93 0 19 -8 45 -18 58 -10 13 -24 43 -31 66 -10 31 -21 45 -42 52
-21 7 -29 17 -29 34 0 29 -33 73 -60 82 -11 4 -20 14 -20 24 0 10 -9 26 -20
36 -11 10 -20 28 -20 40 0 37 -33 59 -80 51 l-40 -6 0 39 c0 42 -10 55 -54 65
-22 6 -27 11 -23 28 3 12 2 30 -4 40 -9 17 -77 18 -1977 17 -1082 -1 -1979 -4
-1993 -6z"/>
<path d="M3902 3474 c-13 -14 -35 -24 -49 -24 -17 0 -24 -3 -17 -10 6 -6 24
-5 51 3 50 15 57 21 46 40 -6 11 -12 10 -31 -9z"/>
<path d="M3733 3401 c-34 -16 -64 -26 -68 -23 -3 4 -10 0 -15 -8 -15 -23 -12
-29 10 -23 11 3 20 9 20 14 0 5 7 9 15 9 8 0 30 9 50 20 20 11 42 20 50 20 7
0 17 5 20 10 11 18 -18 11 -82 -19z"/>
<path d="M4120 3400 c0 -5 5 -10 11 -10 5 0 7 5 4 10 -3 6 -8 10 -11 10 -2 0
-4 -4 -4 -10z"/>
<path d="M2125 3370 c-8 -13 -1 -24 14 -19 6 3 7 10 2 18 -6 10 -10 10 -16 1z"/>
<path d="M2170 3331 c0 -6 8 -11 18 -11 9 0 35 -3 57 -6 27 -5 37 -3 30 4 -15
14 -105 26 -105 13z"/>
<path d="M3596 3324 c-4 -10 -1 -14 6 -12 15 5 23 28 10 28 -5 0 -13 -7 -16
-16z"/>
<path d="M2138 3323 c7 -3 16 -2 19 1 4 3 -2 6 -13 5 -11 0 -14 -3 -6 -6z"/>
<path d="M2291 3306 c12 -10 60 -16 54 -6 -3 5 -18 10 -32 10 -15 0 -24 -2
-22 -4z"/>
<path d="M2412 3288 c-7 -7 -12 -19 -12 -27 0 -11 4 -10 20 4 21 19 26 35 12
35 -4 0 -13 -5 -20 -12z"/>
<path d="M3835 3195 c-47 -24 -75 -73 -75 -132 0 -46 4 -56 43 -99 40 -43 47
-47 97 -51 86 -6 138 36 155 127 7 42 -26 114 -67 143 -35 26 -114 32 -153 12z"/>
<path d="M2156 3075 c-54 -19 -76 -44 -91 -103 -16 -62 -4 -111 37 -152 30
-30 101 -52 138 -43 72 17 129 106 116 177 -9 46 -50 94 -101 117 -48 22 -49
22 -99 4z"/>
<path d="M4430 2785 c0 -8 5 -15 10 -15 6 0 10 7 10 15 0 8 -4 15 -10 15 -5 0
-10 -7 -10 -15z"/>
<path d="M4327 2684 c-9 -10 2 -24 19 -24 8 0 14 7 14 15 0 15 -21 21 -33 9z"/>
<path d="M3082 2650 c0 -19 2 -27 5 -17 2 9 2 25 0 35 -3 9 -5 1 -5 -18z"/>
<path d="M1446 2534 c-9 -24 -2 -26 12 -4 7 11 8 20 3 20 -5 0 -12 -7 -15 -16z"/>
<path d="M3070 1999 c0 -5 5 -7 10 -4 6 3 10 8 10 11 0 2 -4 4 -10 4 -5 0 -10
-5 -10 -11z"/>
<path d="M3390 1791 c-29 -9 -29 -2 -1 -176 26 -168 42 -349 52 -610 4 -116
12 -244 18 -285 25 -180 29 -209 39 -241 18 -58 44 -216 41 -252 -2 -19 2 -42
10 -50 7 -9 17 -46 22 -84 5 -37 11 -74 14 -81 3 -9 68 -12 275 -12 148 0 270
4 270 9 0 22 -65 315 -105 471 -69 272 -74 300 -55 300 9 0 101 90 150 146 13
16 35 49 47 73 19 37 21 48 11 62 -34 47 -177 230 -217 278 -68 79 -183 175
-262 216 -38 20 -69 40 -69 45 0 5 18 24 41 43 l41 35 -24 15 c-12 9 -58 27
-101 41 -43 15 -96 35 -117 46 -42 22 -43 22 -80 11z m425 -991 l29 -30 -32
-33 c-38 -40 -42 -78 -9 -104 35 -28 39 -40 22 -72 -22 -44 -32 -46 -73 -14
-56 43 -64 44 -98 11 -37 -34 -63 -32 -84 7 -12 22 -10 29 15 65 30 44 30 44
-17 119 l-22 34 23 18 c18 14 27 16 49 8 15 -6 29 -14 32 -19 3 -5 16 -11 30
-15 20 -5 32 1 55 25 36 37 44 37 80 0z"/>
<path d="M2925 1748 c-189 -37 -235 -53 -235 -82 0 -11 9 -34 20 -51 11 -16
20 -33 20 -37 0 -4 -17 -16 -39 -27 -60 -31 -94 -64 -179 -174 -82 -106 -125
-156 -229 -269 -39 -41 -63 -76 -63 -90 -1 -27 51 -138 64 -138 5 0 37 -25 71
-55 88 -77 88 -77 15 -315 -31 -104 -66 -225 -80 -280 -20 -76 -50 -209 -50
-219 0 -8 78 -11 248 -11 l248 0 13 96 c7 53 17 109 23 123 6 14 11 49 12 76
4 86 19 180 29 187 6 3 14 30 17 60 6 47 26 173 62 393 6 39 10 88 9 109 -1
22 3 64 10 95 6 31 20 99 30 151 11 52 24 120 30 150 5 30 19 94 30 143 16 69
18 95 9 126 -12 44 -27 51 -85 39z m-282 -863 c33 -32 58 -37 77 -16 11 13 51
31 68 31 24 0 46 -42 39 -72 -4 -14 -17 -30 -30 -37 -13 -7 -31 -26 -41 -42
-17 -28 -17 -31 9 -86 l25 -56 -22 -24 c-29 -31 -38 -29 -71 17 -16 22 -36 40
-45 40 -9 0 -35 -14 -57 -31 l-40 -30 -22 26 c-31 35 -29 51 12 101 40 49 43
74 14 128 l-20 38 22 24 c30 32 39 30 82 -11z"/>
<path d="M2146 81 c-4 -7 -5 -15 -2 -18 9 -9 19 4 14 18 -4 11 -6 11 -12 0z"/>
<path d="M1981 16 c-12 -14 -5 -16 73 -16 47 0 86 4 86 9 0 5 -10 9 -22 10
-13 0 -46 4 -74 7 -39 4 -53 2 -63 -10z"/>
</g>
</svg>
